HIERARCHY
ROOT SpineBase
{
  OFFSET 0.000000 0.000000 0.000000
  CHANNELS 6 Xposition Yposition Zposition Zrotation Xrotation Yrotation
  JOINT SpineMid
  {
    OFFSET -0.000000 32.871070 0.000000
    CHANNELS 3 Zrotation Xrotation Yrotation
    JOINT SpineShoulder
    {
      OFFSET -0.130524 24.525681 -0.881559
      CHANNELS 3 Zrotation Xrotation Yrotation
      JOINT Neck
      {
        OFFSET -0.100811 8.152377 -0.636175
        CHANNELS 3 Zrotation Xrotation Yrotation
        JOINT Head
        {
          OFFSET -0.126162 11.334304 1.861730
          CHANNELS 3 Zrotation Xrotation Yrotation
          End Site
          {
            OFFSET 0 0 0
          }
        }
      }
      JOINT ShoulderLeft
      {
        OFFSET -15.137443 -7.390966 -5.377518
        CHANNELS 3 Zrotation Xrotation Yrotation
        JOINT ElbowLeft
        {
          OFFSET -4.811086 -27.679115 3.648824
          CHANNELS 3 Zrotation Xrotation Yrotation
          JOINT WristLeft
          {
            OFFSET -4.165904 -23.953102 5.183210
            CHANNELS 3 Zrotation Xrotation Yrotation
            JOINT HandLeft
            {
              OFFSET 0.077477 -6.994444 0.506451
              CHANNELS 3 Zrotation Xrotation Yrotation
              JOINT HandTipLeft
              {
                OFFSET 0.160476 -6.774985 0.157822
                CHANNELS 3 Zrotation Xrotation Yrotation
                End Site
                {
                  OFFSET 0 0 0
                }
              }
              JOINT ThumbLeft
              {
                OFFSET -4.402083 0.837143 -4.363958
                CHANNELS 3 Zrotation Xrotation Yrotation
                End Site
                {
                  OFFSET 0 0 0
                }
              }
            }
          }
        }
      }
      JOINT ShoulderRight
      {
        OFFSET 16.423253 -5.082802 -3.765470
        CHANNELS 3 Zrotation Xrotation Yrotation
        JOINT ElbowRight
        {
          OFFSET 6.362358 -27.291887 3.406671
          CHANNELS 3 Zrotation Xrotation Yrotation
          JOINT WristRight
          {
            OFFSET 2.314591 -22.379555 5.620034
            CHANNELS 3 Zrotation Xrotation Yrotation
            JOINT HandRight
            {
              OFFSET -0.241896 -7.853617 2.697220
              CHANNELS 3 Zrotation Xrotation Yrotation
              JOINT HandTipRight
              {
                OFFSET -0.400108 -7.196386 -0.574587
                CHANNELS 3 Zrotation Xrotation Yrotation
                End Site
                {
                  OFFSET 0 0 0
                }
              }
              JOINT ThumbRight
              {
                OFFSET 1.649642 1.388386 -2.192022
                CHANNELS 3 Zrotation Xrotation Yrotation
                End Site
                {
                  OFFSET 0 0 0
                }
              }
            }
          }
        }
      }
    }
  }
  JOINT HipLeft
  {
    OFFSET -6.819596 1.288020 -3.641892
    CHANNELS 3 Zrotation Xrotation Yrotation
    JOINT KneeLeft
    {
      OFFSET -0.807238 -36.209610 -1.836915
      CHANNELS 3 Zrotation Xrotation Yrotation
      JOINT AnkleLeft
      {
        OFFSET -3.999640 -35.895665 0.689498
        CHANNELS 3 Zrotation Xrotation Yrotation
        JOINT FootLeft
        {
          OFFSET 1.550736 -5.416763 -7.920101
          CHANNELS 3 Zrotation Xrotation Yrotation
          End Site
          {
            OFFSET 0 0 0
          }
        }
      }
    }
  }
  JOINT HipRight
  {
    OFFSET 5.609597 1.729825 -2.744604
    CHANNELS 3 Zrotation Xrotation Yrotation
    JOINT KneeRight
    {
      OFFSET 3.694165 -35.961306 -6.214849
      CHANNELS 3 Zrotation Xrotation Yrotation
      JOINT AnkleRight
      {
        OFFSET 0.895219 -36.711745 -4.221584
        CHANNELS 3 Zrotation Xrotation Yrotation
        JOINT FootRight
        {
          OFFSET -0.017019 -2.955128 -12.934038
          CHANNELS 3 Zrotation Xrotation Yrotation
          End Site
          {
            OFFSET 0 0 0
          }
        }
      }
    }
  }
}
MOTION
Frames: 10
Frame Time: 0.033333
48.403173 76.234018 256.357848 0.000000 0.000000 -4.129130 -0.000000 0.000000 4.129130 -0.000000 0.000000 0.000000 -0.000000 0.000000 0.000000 0.000000 0.000000 0.000000 -0.000000 0.000000 0.000000 -0.000000 0.000000 0.000000 -0.000000 0.000000 0.000000 -0.000000 0.000000 0.000000 0.000000 0.000000 0.000000 0.000000 0.000000 0.000000 -0.000000 0.000000 0.000000 -0.000000 0.000000 0.000000 -0.000000 0.000000 0.000000 -0.000000 0.000000 0.000000 0.000000 0.000000 0.000000 0.000000 0.000000 0.000000 -0.000000 0.000000 4.129130 -0.000000 0.000000 0.000000 -0.000000 0.000000 0.000000 0.000000 0.000000 0.000000 -0.000000 0.000000 4.129130 -0.000000 0.000000 0.000000 -0.000000 0.000000 0.000000 0.000000 0.000000 0.000000
48.436344 76.218528 256.366108 -0.045258 0.026017 -4.126550 0.047013 -0.022693 4.126570 -0.000000 0.000000 0.000000 -0.000000 0.000000 0.000000 0.000000 0.000000 0.000000 -0.000000 0.000000 0.000000 -0.000000 0.000000 0.000000 0.792625 -2.878156 0.045332 -0.791347 2.878507 -0.005536 0.000000 0.000000 0.000000 0.000000 0.000000 0.000000 -0.000000 0.000000 0.000000 -0.883826 0.570285 -0.158899 0.885448 -0.567764 0.167685 0.377966 0.971686 -0.087366 0.000000 0.000000 0.000000 0.000000 0.000000 0.000000 0.047013 -0.022693 4.126570 -0.000000 0.000000 0.000000 -0.842433 9.234673 3.537736 0.000000 0.000000 0.000000 0.047013 -0.022693 4.126570 -0.000000 0.000000 0.000000 -0.000000 0.000000 0.000000 0.000000 0.000000 0.000000
48.470766 76.202832 256.381148 -0.080995 0.050665 -4.109023 0.084418 -0.044731 4.109091 -0.000000 0.000000 0.000000 0.236085 -1.050821 -0.048382 0.000000 0.000000 0.000000 -0.000000 0.000000 0.000000 -0.000000 0.000000 0.000000 1.441854 -5.381974 0.112122 -1.437676 5.383089 0.023240 0.000000 0.000000 0.000000 0.000000 0.000000 0.000000 0.568034 0.665468 0.222647 -2.150950 0.361424 -0.527096 2.316092 -1.428999 0.584492 -0.041829 2.294544 -0.432295 0.000000 0.000000 0.000000 0.000000 0.000000 0.000000 0.084418 -0.044731 4.109091 -0.000000 0.000000 0.000000 -1.751803 15.405422 6.057488 0.000000 0.000000 0.000000 0.084418 -0.044731 4.109091 -0.000000 0.000000 0.000000 0.018640 1.178004 -0.084748 0.000000 0.000000 0.000000
48.506437 76.186929 256.402966 -0.107204 0.073939 -4.076537 0.112189 -0.066131 4.076671 -0.000000 0.000000 0.000000 0.336928 -1.548794 -0.068178 0.000000 0.000000 0.000000 -0.000000 0.000000 0.000000 -0.000000 0.000000 0.000000 1.952606 -7.528279 0.185445 -2.851844 7.180012 0.157913 0.000000 0.000000 0.000000 0.000000 0.000000 0.000000 0.787166 0.958612 0.314976 -2.871855 0.390290 -0.726663 3.003681 -1.746316 0.760064 -0.027128 3.096176 -0.563143 0.000000 0.000000 0.000000 0.000000 0.000000 0.000000 0.112189 -0.066131 4.076671 -0.000000 0.000000 0.000000 -2.524965 19.472930 7.825714 0.000000 0.000000 0.000000 0.112189 -0.066131 4.076671 -0.000000 0.000000 0.000000 0.040194 1.149370 -0.175249 0.000000 0.000000 0.000000
48.543359 76.170820 256.431562 -0.123880 0.095837 -4.029084 0.130308 -0.086896 4.029286 -0.000000 0.000000 0.000000 0.426109 -2.027138 -0.085263 0.000000 0.000000 0.000000 -0.000000 0.000000 0.000000 -0.000000 0.000000 0.000000 2.328102 -9.335055 0.253509 -3.417175 9.216688 0.275089 0.000000 0.000000 0.000000 0.000000 0.000000 0.000000 0.963286 1.225134 0.395313 -3.343947 0.305087 -0.880153 3.363215 -1.793217 0.844880 -0.020798 3.618241 -0.627309 0.000000 0.000000 0.000000 0.000000 0.000000 0.000000 0.130308 -0.086896 4.029286 -0.000000 0.000000 0.000000 -3.098992 22.078040 9.012277 0.000000 0.000000 0.000000 0.130308 -0.086896 4.029286 -0.000000 0.000000 0.000000 -0.000000 0.000000 0.000000 0.000000 0.000000 0.000000
48.581530 76.154506 256.466937 -0.131021 0.116355 -3.966654 0.138756 -0.107013 3.966916 -0.000000 0.000000 0.000000 0.503533 -2.484972 -0.099803 0.000000 0.000000 0.000000 -0.000000 0.000000 0.000000 -0.000000 0.000000 0.000000 2.569845 -10.818903 0.307118 -3.789455 11.110501 0.391747 0.000000 0.000000 0.000000 0.000000 0.000000 0.000000 1.096562 1.464918 0.464089 -3.565728 0.102462 -0.985453 3.389312 -1.564767 0.834039 -0.034763 3.824197 -0.618264 0.000000 0.000000 0.000000 0.000000 0.000000 0.000000 0.138756 -0.107013 3.966916 -0.000000 0.000000 0.000000 -3.460380 23.602348 9.722217 0.000000 0.000000 0.000000 0.138756 -0.107013 3.966916 -0.000000 0.000000 0.000000 -0.000000 0.000000 0.000000 0.000000 0.000000 0.000000
48.630406 76.137298 256.511064 -0.125787 0.167400 -3.900028 0.136882 -0.158456 3.900401 -0.000000 0.000000 0.000000 0.647932 -3.260343 -0.124864 0.000000 0.000000 0.000000 -0.000000 0.000000 0.000000 0.145158 -0.905701 0.189797 2.518636 -11.314313 0.112957 -4.504911 13.732734 0.632274 0.000000 0.000000 0.000000 0.000000 0.000000 0.000000 1.319695 1.834642 0.570942 -3.428619 -0.804289 -1.087836 2.035339 0.810387 0.368723 -1.790016 2.232056 0.007902 0.000000 0.000000 0.000000 0.000000 0.000000 0.000000 0.136882 -0.158456 3.900401 -0.000000 0.000000 0.000000 -2.826654 21.600335 8.578664 0.000000 0.000000 0.000000 0.136882 -0.158456 3.900401 -0.000000 0.000000 0.000000 0.198913 -2.869509 -0.953623 0.000000 0.000000 0.000000
48.671408 76.117221 256.561573 -0.116043 0.207075 -3.789188 0.129475 -0.198953 3.789623 -0.000000 0.000000 0.000000 0.687672 -3.818392 -0.133271 0.000000 0.000000 0.000000 -0.000000 0.000000 0.000000 0.311379 -1.243922 0.286572 2.083218 -12.057791 -0.025301 -4.040218 15.386571 0.664806 0.000000 0.000000 0.000000 0.000000 0.000000 0.000000 1.352406 2.016395 0.614788 -3.099120 -0.796400 -1.020064 1.744827 -1.174287 0.333246 -1.557894 3.182316 -0.009276 0.000000 0.000000 0.000000 0.000000 0.000000 0.000000 0.129475 -0.198953 3.789623 -0.000000 0.000000 0.000000 -2.826260 21.625228 8.582207 0.000000 0.000000 0.000000 0.129475 -0.198953 3.789623 -0.000000 0.000000 0.000000 0.238585 -5.088090 -1.246748 0.000000 0.000000 0.000000
48.704521 76.098303 256.617501 -0.099915 0.223925 -3.690637 -0.200089 0.614939 3.687319 0.097973 -0.044685 0.002804 0.918919 -5.150442 -0.130231 0.000000 0.000000 0.000000 0.162071 -0.805768 0.003821 0.449974 -1.491323 0.361838 1.847632 -12.286221 -0.116463 -3.533788 16.395265 0.607182 0.000000 0.000000 0.000000 0.000000 0.000000 0.000000 1.468158 1.277723 0.647007 -2.422865 -1.543344 -0.930376 0.250690 1.953661 -0.127978 1.133791 1.277133 0.156845 0.000000 0.000000 0.000000 0.000000 0.000000 0.000000 -0.757518 0.013759 3.726480 0.854801 -0.286947 -0.034838 -2.843176 21.638938 8.606597 0.000000 0.000000 0.000000 0.114123 -0.217029 3.691048 -0.000000 0.000000 0.000000 0.253717 -6.551957 -1.411841 0.000000 0.000000 0.000000
48.737900 76.082992 256.676223 -0.078950 0.203476 -3.507200 -0.211466 0.650850 3.504308 0.250278 -0.866023 0.006277 0.697115 -4.303245 -0.137074 0.000000 0.000000 0.000000 -0.000000 0.000000 0.000000 0.595587 -1.691682 0.430922 1.308629 -12.009447 -0.251448 -2.315168 16.145796 0.381046 0.000000 0.000000 0.000000 0.000000 0.000000 0.000000 1.028955 1.998175 0.576407 -1.869223 -1.673671 -0.814033 0.307963 2.329597 -0.070731 2.310194 1.798034 -0.107565 0.000000 0.000000 0.000000 0.000000 0.000000 0.000000 -0.867151 0.118057 3.546016 0.937014 -0.374975 -0.036123 -2.920148 21.634095 8.706633 0.000000 0.000000 0.000000 0.091250 -0.198265 3.507498 -0.000000 0.000000 0.000000 0.239036 -7.067162 -1.357591 0.000000 0.000000 0.000000
